Selected configuration:
Model path: ./model/ikun_rgba_whitebg-trained
Output path: output_ikun_rgba
Config: ./config/ikun_rgba_config.json

[Taichi] version 1.5.0, llvm 15.0.4, commit 7b885c28, linux, python 3.9.20
Warp 0.10.1 initialized:
   CUDA Toolkit: 11.5, Driver: 12.2
   Devices:
     "cpu"    | x86_64
     "cuda:0" | NVIDIA GeForce RTX 4090 (sm_89)
   Kernel cache: /home/jiahao/.cache/warp/0.10.1
[Taichi] Starting on arch=cuda
Loading scene config...
Writing scene config to output path output_ikun_rgba/32691...
Loading gaussians...
Extra features :  []
Initializing scene and pre-processing...
write ./log/init_particles.ply
write ./log/rotated_particles.ply
min_pos:tensor([-0.4038, -0.5201, -0.3253], device='cuda:0', grad_fn=<MinBackward0>) max_pos:tensor([0.3784, 0.4561, 0.3248], device='cuda:0', grad_fn=<MaxBackward0>)
original_mean_pos:tensor([-0.0127, -0.0320, -0.0003], device='cuda:0', grad_fn=<DivBackward0>) max_diff:0.9762256145477295
write ./log/transformed_particles.ply
Initializing MPM solver and setting up boundary conditions...
check *.ply files to see if it's ready for simulation
Module warp_utils load on device 'cuda:0' took 3.77 ms
Particles initialized from torch data.
Total particles:  8198
Applying additional material parameters
Module mpm_utils load on device 'cuda:0' took 230.61 ms
vertical:[0. 1. 0.] h1:[0.70710678 0.         0.70710678] h2:[-0.70710678  0.          0.70710678]
observant_coordinates:
[[ 0.70710678 -0.70710678  0.        ]
 [ 0.          0.          1.        ]
 [ 0.70710678  0.70710678  0.        ]]
  0%|                                                                                                                                                                 | 0/125 [00:00<?, ?it/s]Module mpm_solver_warp.mpm_solver_warp load on device 'cuda:0' took 2.69 ms
100%|███████████████████████████████████████████████████████████████████████████████████████████████████████████████████████████████████████████████████████| 125/125 [00:18<00:00,  6.87it/s]
ffmpeg version 4.2.7-0ubuntu0.1 Copyright (c) 2000-2022 the FFmpeg developers
  built with gcc 9 (Ubuntu 9.4.0-1ubuntu1~20.04.1)
  configuration: --prefix=/usr --extra-version=0ubuntu0.1 --toolchain=hardened --libdir=/usr/lib/x86_64-linux-gnu --incdir=/usr/include/x86_64-linux-gnu --arch=amd64 --enable-gpl --disable-stripping --enable-avresample --disable-filter=resample --enable-avisynth --enable-gnutls --enable-ladspa --enable-libaom --enable-libass --enable-libbluray --enable-libbs2b --enable-libcaca --enable-libcdio --enable-libcodec2 --enable-libflite --enable-libfontconfig --enable-libfreetype --enable-libfribidi --enable-libgme --enable-libgsm --enable-libjack --enable-libmp3lame --enable-libmysofa --enable-libopenjpeg --enable-libopenmpt --enable-libopus --enable-libpulse --enable-librsvg --enable-librubberband --enable-libshine --enable-libsnappy --enable-libsoxr --enable-libspeex --enable-libssh --enable-libtheora --enable-libtwolame --enable-libvidstab --enable-libvorbis --enable-libvpx --enable-libwavpack --enable-libwebp --enable-libx265 --enable-libxml2 --enable-libxvid --enable-libzmq --enable-libzvbi --enable-lv2 --enable-omx --enable-openal --enable-opencl --enable-opengl --enable-sdl2 --enable-libdc1394 --enable-libdrm --enable-libiec61883 --enable-nvenc --enable-chromaprint --enable-frei0r --enable-libx264 --enable-shared
  libavutil      56. 31.100 / 56. 31.100
  libavcodec     58. 54.100 / 58. 54.100
  libavformat    58. 29.100 / 58. 29.100
  libavdevice    58.  8.100 / 58.  8.100
  libavfilter     7. 57.100 /  7. 57.100
  libavresample   4.  0.  0 /  4.  0.  0
  libswscale      5.  5.100 /  5.  5.100
  libswresample   3.  5.100 /  3.  5.100
  libpostproc    55.  5.100 / 55.  5.100
Input #0, image2, from 'output_ikun_rgba/32691/%04d.png':
  Duration: 00:00:05.00, start: 0.000000, bitrate: N/A
    Stream #0:0: Video: png, rgb24(pc), 800x800, 25 fps, 25 tbr, 25 tbn, 25 tbc
Stream mapping:
  Stream #0:0 -> #0:0 (png (native) -> h264 (libx264))
Press [q] to stop, [?] for help
[libx264 @ 0x5599568f51c0] using cpu capabilities: MMX2 SSE2Fast SSSE3 SSE4.2 AVX FMA3 BMI2 AVX2 AVX512
[libx264 @ 0x5599568f51c0] profile High, level 3.1
[libx264 @ 0x5599568f51c0] 264 - core 155 r2917 0a84d98 - H.264/MPEG-4 AVC codec - Copyleft 2003-2018 - http://www.videolan.org/x264.html - options: cabac=1 ref=3 deblock=1:0:0 analyse=0x3:0x113 me=hex subme=7 psy=1 psy_rd=1.00:0.00 mixed_ref=1 me_range=16 chroma_me=1 trellis=1 8x8dct=1 cqm=0 deadzone=21,11 fast_pskip=1 chroma_qp_offset=-2 threads=25 lookahead_threads=4 sliced_threads=0 nr=0 decimate=1 interlaced=0 bluray_compat=0 constrained_intra=0 bframes=3 b_pyramid=2 b_adapt=1 b_bias=0 direct=1 weightb=1 open_gop=0 weightp=2 keyint=250 keyint_min=25 scenecut=40 intra_refresh=0 rc_lookahead=40 rc=crf mbtree=1 crf=23.0 qcomp=0.60 qpmin=0 qpmax=69 qpstep=4 ip_ratio=1.40 aq=1:1.00
Output #0, mp4, to 'output_ikun_rgba/32691/output.mp4':
  Metadata:
    encoder         : Lavf58.29.100
    Stream #0:0: Video: h264 (libx264) (avc1 / 0x31637661), yuv420p, 800x800, q=-1--1, 25 fps, 12800 tbn, 25 tbc
    Metadata:
      encoder         : Lavc58.54.100 libx264
    Side data:
      cpb: bitrate max/min/avg: 0/0/0 buffer size: 0 vbv_delay: -1
frame=  125 fps=0.0 q=-1.0 Lsize=      99kB time=00:00:04.88 bitrate= 166.3kbits/s speed=7.94x    
video:97kB audio:0kB subtitle:0kB other streams:0kB global headers:0kB muxing overhead: 2.355445%
[libx264 @ 0x5599568f51c0] frame I:1     Avg QP:15.70  size:  6357
[libx264 @ 0x5599568f51c0] frame P:31    Avg QP:20.37  size:  2144
[libx264 @ 0x5599568f51c0] frame B:93    Avg QP:20.44  size:   275
[libx264 @ 0x5599568f51c0] consecutive B-frames:  0.8%  0.0%  0.0% 99.2%
[libx264 @ 0x5599568f51c0] mb I  I16..4: 25.3% 73.2%  1.5%
[libx264 @ 0x5599568f51c0] mb P  I16..4:  0.1%  0.6%  0.0%  P16..4: 13.3%  4.9%  2.2%  0.0%  0.0%    skip:78.8%
[libx264 @ 0x5599568f51c0] mb B  I16..4:  0.0%  0.0%  0.0%  B16..8:  7.3%  0.1%  0.0%  direct: 0.0%  skip:92.6%  L0:26.1% L1:71.6% BI: 2.3%
[libx264 @ 0x5599568f51c0] 8x8 transform intra:74.3% inter:83.2%
[libx264 @ 0x5599568f51c0] coded y,uvDC,uvAC intra: 14.6% 13.2% 4.8% inter: 1.2% 1.1% 0.1%
[libx264 @ 0x5599568f51c0] i16 v,h,dc,p: 75%  6%  9% 10%
[libx264 @ 0x5599568f51c0] i8 v,h,dc,ddl,ddr,vr,hd,vl,hu: 31% 15% 39%  1%  4%  5%  3%  2%  2%
[libx264 @ 0x5599568f51c0] i4 v,h,dc,ddl,ddr,vr,hd,vl,hu: 23% 21% 21%  2% 12%  9%  7%  4%  1%
[libx264 @ 0x5599568f51c0] i8c dc,h,v,p: 84%  8%  6%  2%
[libx264 @ 0x5599568f51c0] Weighted P-Frames: Y:0.0% UV:0.0%
[libx264 @ 0x5599568f51c0] ref P L0: 67.2% 14.9% 15.9%  2.0%
[libx264 @ 0x5599568f51c0] ref B L0: 92.4%  6.5%  1.0%
[libx264 @ 0x5599568f51c0] ref B L1: 98.3%  1.7%
[libx264 @ 0x5599568f51c0] kb/s:157.51